<?xml version="1.0" standalone="no"?>
<!DOCTYPE svg PUBLIC "-//W3C//DTD SVG 20010904//EN"
 "http://www.w3.org/TR/2001/REC-SVG-20010904/DTD/svg10.dtd">
<svg version="1.0" xmlns="http://www.w3.org/2000/svg"
 width="3000.000000pt" height="3000.000000pt" viewBox="0 0 3000.000000 3000.000000"
 preserveAspectRatio="xMidYMid meet">

<g transform="translate(0.000000,3000.000000) scale(0.100000,-0.100000)"
fill="#000000" stroke="none">
<path d="M0 15000 l0 -15000 15000 0 15000 0 0 15000 0 15000 -15000 0 -15000
0 0 -15000z m14266 5655 c472 -1061 859 -2009 954 -2336 l22 -76 57 -23 c107
-43 397 -189 513 -258 156 -93 335 -217 429 -296 l76 -64 289 392 c979 1328
1911 2586 2136 2881 l114 150 2173 3 c1251 1 2171 -2 2169 -7 -1 -5 -1123
-1236 -2493 -2736 l-2490 -2728 -6 -146 c-11 -232 -52 -423 -124 -575 -36 -77
-118 -196 -134 -196 -6 0 -25 28 -43 62 -39 74 -130 174 -185 205 l-40 22
-122 -135 -123 -135 1373 -2837 c755 -1560 1374 -2840 1376 -2844 2 -5 -940
-8 -2095 -8 l-2098 0 -229 523 c-773 1768 -1251 2917 -1514 3642 l-19 50 -55
3 -55 3 -103 -133 c-1017 -1317 -2325 -2927 -3188 -3921 l-145 -167 -1944 0
c-1090 0 -1942 4 -1940 9 2 4 232 246 513 537 1344 1394 2036 2123 2069 2181
29 52 -77 35 -210 -33 -134 -68 -236 -146 -387 -295 -146 -145 -147 -144 -28
21 231 321 595 759 911 1095 539 575 883 915 1198 1183 40 34 69 62 65 62 -5
0 -60 7 -123 15 -63 9 -209 18 -325 21 -200 6 -303 -2 -435 -31 -14 -3 0 4 30
16 718 283 801 317 1305 539 799 352 1776 751 2335 953 667 241 1194 375 1700
432 661 74 1241 31 1713 -126 272 -90 447 -185 683 -370 12 -10 11 8 -7 211
-23 256 -92 575 -164 761 -80 208 -177 363 -293 471 -167 154 -506 310 -832
382 -129 28 -326 56 -399 56 -47 0 -50 2 -90 54 -110 143 -342 336 -541 452
-656 382 -1394 517 -2955 540 -652 10 -965 -5 -2030 -96 -355 -30 -695 -52
-1085 -70 -299 -13 -1066 -32 -1175 -28 l-90 3 90 28 c50 16 187 58 305 93
475 145 1005 327 1195 412 230 102 358 201 421 324 23 43 28 66 28 128 1 69
-3 84 -38 155 -71 145 -269 320 -541 477 -118 68 -118 68 122 38 299 -38 671
-127 904 -214 51 -20 95 -33 97 -31 2 2 -166 383 -374 846 -209 463 -381 846
-382 850 -2 5 912 8 2058 7 l2062 -3 164 -370z m746 -3244 c268 -53 447 -147
621 -325 37 -38 67 -74 67 -79 0 -5 -14 -5 -32 0 -18 4 -133 7 -255 5 -340 -5
-376 9 -598 233 -126 127 -146 143 -199 160 -56 19 -57 20 -30 27 56 13 315 0
426 -21z"/>
</g>
</svg>
