<?xml version="1.0" standalone="no"?>
<!DOCTYPE svg PUBLIC "-//W3C//DTD SVG 20010904//EN"
 "http://www.w3.org/TR/2001/REC-SVG-20010904/DTD/svg10.dtd">
<svg version="1.0" xmlns="http://www.w3.org/2000/svg"
 width="2915.000000pt" height="574.000000pt" viewBox="0 0 2915.000000 574.000000"
 preserveAspectRatio="xMidYMid meet">

<g transform="translate(0.000000,574.000000) scale(0.100000,-0.100000)"
fill="#000000" stroke="none">
<path d="M4965 5686 c-83 -20 -130 -41 -200 -91 -107 -77 -189 -174 -402 -475
-115 -162 -522 -736 -904 -1275 -382 -539 -698 -986 -703 -992 -6 -10 99 -13
511 -13 l519 0 259 367 c143 202 437 617 653 922 215 306 395 557 400 558 4 1
88 -118 187 -265 278 -411 504 -742 546 -799 22 -29 39 -53 39 -55 0 -2 -269
-3 -597 -3 l-597 0 -261 -360 -261 -360 818 -3 c450 -1 1186 -1 1637 0 l818 3
-221 320 c-233 336 -552 797 -1182 1710 -216 314 -406 578 -443 617 -77 83
-174 149 -261 178 -83 29 -265 37 -355 16z"/>
<path d="M16590 5693 c-663 -45 -1106 -191 -1391 -460 -180 -170 -299 -408
-344 -688 -34 -209 -28 -478 14 -674 54 -247 152 -433 311 -591 267 -266 695
-420 1300 -470 170 -14 645 -14 810 0 739 62 1214 280 1457 667 247 396 256
1091 19 1506 -237 415 -750 651 -1536 707 -131 9 -526 11 -640 3z m825 -757
c391 -50 573 -182 629 -458 21 -103 21 -352 1 -456 -23 -111 -72 -207 -142
-273 -74 -70 -126 -100 -238 -138 -123 -41 -258 -59 -541 -73 -266 -13 -633
-1 -819 27 -282 42 -451 141 -531 309 -51 107 -67 196 -67 371 0 247 40 381
148 494 118 124 302 184 635 211 175 13 781 4 925 -14z"/>
<path d="M19725 5690 c-147 -32 -241 -104 -305 -230 -62 -123 -60 -69 -60
-1402 l0 -1218 395 0 395 0 0 816 c0 539 3 815 10 812 10 -3 377 -331 1285
-1147 253 -228 480 -429 505 -447 125 -94 375 -102 519 -17 93 54 170 162 208
289 16 55 18 151 21 1282 l3 1222 -406 0 -405 0 0 -816 0 -816 -82 74 c-46 41
-348 312 -673 603 -324 291 -681 611 -793 712 -223 200 -270 236 -346 265 -58
23 -208 32 -271 18z"/>
<path d="M23297 5663 c-4 -3 -7 -1259 -7 -2790 l0 -2783 2788 2 2787 3 0 2785
0 2785 -2781 3 c-1529 1 -2784 -1 -2787 -5z m2691 -1188 c73 -162 213 -502
247 -598 l28 -78 71 -33 c39 -18 109 -58 155 -90 46 -31 84 -56 86 -54 1 2
112 152 245 333 134 182 297 401 362 488 l118 157 631 0 c602 0 630 -1 611
-17 -11 -10 -280 -304 -598 -653 -318 -349 -633 -695 -700 -768 l-121 -133 -7
-62 c-3 -34 -13 -85 -22 -112 -18 -59 -52 -107 -61 -86 -3 7 -18 28 -34 45
l-28 31 -39 -40 -40 -40 190 -390 c324 -666 598 -1237 598 -1246 0 -5 -255 -9
-600 -9 l-600 0 -19 38 c-59 115 -458 1069 -486 1160 -4 15 -13 22 -24 20 -10
-2 -87 -91 -170 -198 -179 -229 -427 -534 -665 -817 l-170 -203 -565 0 c-310
0 -562 2 -560 4 36 37 239 248 399 416 113 118 238 250 279 292 41 43 72 81
69 84 -13 12 -99 -36 -149 -83 -65 -60 -51 -31 42 84 133 166 386 433 513 541
21 18 36 35 33 38 -2 3 -52 6 -110 7 -58 1 -103 5 -99 8 4 3 45 21 92 39 47
18 159 66 250 106 484 212 818 336 1026 379 305 64 603 34 774 -76 l63 -41 -6
69 c-13 135 -62 270 -120 331 -60 63 -198 119 -334 137 -40 5 -56 12 -68 31
-39 60 -197 155 -328 198 -225 73 -739 96 -1207 52 -85 -8 -225 -17 -310 -20
-85 -4 -211 -9 -280 -12 -74 -3 -121 -2 -115 3 6 5 73 29 150 52 307 94 415
152 415 222 0 57 -49 118 -138 174 -24 14 -42 28 -40 31 8 7 178 -25 252 -47
37 -11 70 -18 73 -15 4 4 -22 66 -156 364 l-50 112 596 -2 597 -3 54 -120z"/>
<path d="M240 4245 l0 -1405 440 0 440 0 2 513 3 512 791 3 791 2 259 335
c142 185 261 340 262 345 2 7 -369 10 -1052 10 l-1056 0 0 175 0 175 854 0
854 0 278 362 c154 199 281 365 282 370 2 4 -705 8 -1572 8 l-1576 0 0 -1405z"/>
<path d="M7725 5638 c-3 -7 -4 -638 -3 -1403 l3 -1390 1241 -3 1242 -2 281
360 c155 198 281 362 281 365 0 3 -488 5 -1085 5 l-1085 0 0 1040 0 1040 -435
0 c-339 0 -437 -3 -440 -12z"/>
<path d="M12340 5634 c-415 -56 -745 -208 -996 -458 -199 -198 -315 -414 -359
-666 -20 -113 -20 -361 0 -476 61 -349 279 -673 600 -889 95 -63 309 -166 425
-203 126 -41 165 -51 295 -75 103 -19 161 -20 936 -24 l825 -4 281 363 280
363 -1066 6 c-1111 6 -1091 5 -1231 50 -251 82 -429 263 -475 484 -30 141 -12
276 54 410 74 151 215 272 390 335 164 60 161 60 994 60 419 0 767 4 773 8 6
4 113 142 239 307 125 165 250 328 278 363 l49 62 -1094 -1 c-880 -1 -1113 -4
-1198 -15z"/>
<path d="M5362 1844 c-181 -30 -310 -90 -408 -190 -73 -73 -104 -143 -111
-250 -9 -118 24 -205 112 -295 99 -102 201 -153 528 -265 327 -112 421 -167
447 -263 29 -107 -49 -213 -192 -260 -204 -67 -467 -43 -746 68 -119 47 -141
50 -178 17 -24 -20 -28 -32 -32 -88 -7 -118 30 -159 193 -213 379 -127 858
-96 1124 72 157 99 231 226 231 394 0 119 -25 176 -119 270 -97 98 -201 149
-508 253 -245 83 -326 118 -391 165 -57 42 -82 85 -82 141 0 134 133 210 370
210 137 0 229 -18 387 -77 134 -50 161 -51 190 -6 13 20 18 47 18 101 -1 72
-2 75 -37 107 -43 40 -174 85 -317 109 -116 20 -362 20 -479 0z"/>
<path d="M7450 1844 c-142 -21 -263 -58 -385 -119 -175 -87 -293 -202 -370
-360 -60 -121 -85 -230 -92 -390 -16 -403 143 -692 461 -835 341 -152 926
-151 1259 3 254 117 408 297 479 559 20 73 23 106 23 268 -1 195 -14 275 -65
394 -111 260 -364 426 -733 480 -130 20 -443 20 -577 0z m420 -244 c243 -30
403 -126 484 -292 58 -118 71 -182 71 -353 0 -171 -13 -235 -70 -352 -74 -150
-222 -253 -422 -295 -133 -27 -398 -22 -511 11 -275 80 -401 254 -419 577 -8
149 14 277 68 383 49 98 93 149 181 207 155 103 373 143 618 114z"/>
<path d="M16849 1845 c-479 -78 -755 -310 -834 -704 -14 -67 -16 -118 -12
-250 6 -190 28 -290 94 -421 52 -105 187 -239 298 -297 264 -138 653 -183
1028 -117 258 44 473 157 609 318 145 172 216 436 189 699 -26 260 -113 437
-279 568 -113 91 -249 150 -434 191 -123 26 -527 35 -659 13z m426 -246 c174
-21 312 -84 403 -184 102 -111 144 -246 145 -460 0 -111 -4 -156 -21 -216 -48
-177 -144 -298 -294 -369 -126 -60 -182 -72 -363 -77 -402 -12 -622 105 -711
380 -23 70 -27 105 -31 232 -6 182 9 263 67 381 119 242 420 359 805 313z"/>
<path d="M21555 1844 c-173 -31 -310 -93 -399 -181 -155 -153 -165 -378 -24
-538 89 -101 241 -179 543 -280 238 -79 327 -119 384 -170 59 -54 74 -87 69
-152 -13 -148 -184 -238 -453 -237 -176 1 -341 38 -516 115 -75 33 -114 36
-146 14 -49 -35 -53 -169 -7 -224 70 -83 403 -164 669 -163 458 1 786 176 844
450 47 223 -74 401 -353 519 -43 19 -178 68 -300 109 -122 42 -251 92 -288
111 -128 67 -178 152 -143 241 39 97 138 143 324 150 151 6 228 -7 376 -60
168 -60 171 -61 200 -54 17 4 31 18 41 41 17 42 18 141 1 175 -26 51 -168 105
-357 136 -108 18 -361 17 -465 -2z"/>
<path d="M9385 1844 c-52 -8 -86 -26 -96 -51 -5 -14 -9 -366 -9 -830 0 -898
-3 -854 68 -890 35 -17 75 -18 619 -18 l582 0 23 22 c16 17 23 38 26 82 5 74
-2 104 -30 131 -21 19 -34 20 -460 20 l-438 0 0 729 c0 454 -4 739 -10 756 -5
14 -22 30 -36 36 -30 11 -192 20 -239 13z"/>
<path d="M10897 1840 c-27 -5 -55 -14 -63 -20 -21 -18 -21 -1185 1 -1277 58
-247 264 -418 581 -482 345 -69 707 -31 957 101 83 44 223 183 264 263 67 129
66 120 70 760 2 319 2 590 -2 602 -10 42 -58 57 -185 57 -86 0 -125 -4 -152
-16 l-38 -17 0 -548 c0 -335 -4 -573 -11 -613 -39 -240 -219 -360 -544 -363
-249 -2 -418 63 -508 195 -67 99 -67 98 -67 724 0 344 -4 573 -10 589 -5 14
-22 30 -36 36 -38 14 -199 20 -257 9z"/>
<path d="M15245 1840 c-92 -17 -85 62 -85 -892 0 -536 4 -846 10 -858 15 -29
74 -42 185 -42 119 0 167 12 184 48 8 18 11 250 11 847 0 452 -3 832 -6 845
-4 12 -19 29 -35 38 -36 18 -194 27 -264 14z"/>
<path d="M13043 1828 c-56 -27 -67 -159 -18 -216 l23 -27 346 -3 346 -3 0
-735 c0 -467 4 -742 10 -754 19 -36 137 -54 258 -41 124 15 112 -72 112 788
l0 743 330 0 c366 0 386 3 409 59 20 47 10 146 -17 174 l-23 22 -877 2 c-612
1 -884 -1 -899 -9z"/>
<path d="M18790 1834 c-58 -23 -83 -40 -95 -65 -13 -24 -15 -150 -15 -849 0
-799 1 -821 19 -839 31 -31 140 -44 246 -31 127 16 115 -62 116 719 l0 676 22
-29 c441 -591 920 -1222 959 -1263 22 -22 63 -54 92 -70 49 -27 55 -28 196
-28 159 0 186 7 224 58 21 28 21 34 24 851 l2 822 -26 25 c-23 22 -35 24 -141
28 -70 2 -131 -1 -155 -8 -73 -22 -69 15 -66 -695 2 -350 2 -636 1 -636 -1 0
-41 55 -89 123 -198 276 -846 1128 -877 1151 -68 52 -101 60 -267 63 -85 1
-162 0 -170 -3z"/>
</g>
</svg>
